<svg data-v-fde0c5aa="" xmlns="http://www.w3.org/2000/svg" viewBox="0 0 300 300" class="iconAbove"><!----><defs data-v-fde0c5aa=""><!----></defs><rect data-v-fde0c5aa="" fill="transparent" x="0" y="0" width="300px" height="300px" class="logo-background-square"></rect><defs data-v-fde0c5aa=""><!----></defs><g data-v-fde0c5aa="" id="8f5f5097-4e14-4fa0-b5ff-798acc43a57f" fill="#000000" transform="matrix(3.9525692433097235,0,0,3.9525692433097235,14.426877498864522,172.32015883998406)"><path d="M1.41 12.84L1.41 4.03L2.52 4.03L2.52 12.84L1.41 12.84ZM6.27 6.15L6.40 7.43L6.40 7.43Q7.06 5.98 8.65 5.98L8.65 5.98L8.65 5.98Q9.84 5.98 10.51 6.76L10.51 6.76L10.51 6.76Q11.17 7.55 11.17 8.90L11.17 8.90L11.17 12.84L10.08 12.84L10.08 8.90L10.08 8.90Q10.08 7.94 9.63 7.45L9.63 7.45L9.63 7.45Q9.17 6.96 8.33 6.96L8.33 6.96L8.33 6.96Q7.49 6.96 6.97 7.64L6.97 7.64L6.97 7.64Q6.45 8.33 6.43 9.55L6.43 9.55L6.43 12.84L5.32 12.84L5.32 6.15L6.27 6.15ZM13.85 12.84L13.85 6.13L14.95 6.13L14.95 12.84L13.85 12.84ZM14.39 4.56L14.39 4.56L14.39 4.56Q14.06 4.56 13.87 4.38L13.87 4.38L13.87 4.38Q13.68 4.19 13.68 3.87L13.68 3.87L13.68 3.87Q13.68 3.56 13.87 3.37L13.87 3.37L13.87 3.37Q14.06 3.18 14.39 3.18L14.39 3.18L14.39 3.18Q14.73 3.18 14.93 3.37L14.93 3.37L14.93 3.37Q15.13 3.56 15.13 3.87L15.13 3.87L15.13 3.87Q15.13 4.19 14.93 4.38L14.93 4.38L14.93 4.38Q14.73 4.56 14.39 4.56ZM21.31 11.86L21.46 12.64L21.46 12.64Q20.26 13.20 19.26 12.88L19.26 12.88L19.26 12.88Q18.55 12.66 18.26 11.94L18.26 11.94L18.26 11.94Q18.10 11.59 18.10 11.10L18.10 11.10L18.10 6.99L17.02 6.99L17.02 6.15L18.10 6.15L18.10 4.28L19.19 4.28L19.19 6.15L21.29 6.15L21.29 6.99L19.19 6.99L19.19 11.09L19.19 11.09Q19.19 12.11 20.15 12.11L20.15 12.11L20.15 12.11Q20.66 12.11 21.31 11.86L21.31 11.86ZM23.30 12.84L23.30 6.13L24.40 6.13L24.40 12.84L23.30 12.84ZM23.84 4.56L23.84 4.56L23.84 4.56Q23.51 4.56 23.32 4.38L23.32 4.38L23.32 4.38Q23.13 4.19 23.13 3.87L23.13 3.87L23.13 3.87Q23.13 3.56 23.32 3.37L23.32 3.37L23.32 3.37Q23.51 3.18 23.84 3.18L23.84 3.18L23.84 3.18Q24.18 3.18 24.38 3.37L24.38 3.37L24.38 3.37Q24.58 3.56 24.58 3.87L24.58 3.87L24.58 3.87Q24.58 4.19 24.38 4.38L24.38 4.38L24.38 4.38Q24.18 4.56 23.84 4.56ZM31.56 9.35L31.56 8.50L31.56 8.50Q31.56 7.59 31.18 7.20L31.18 7.20L31.18 7.20Q30.80 6.80 30.08 6.80L30.08 6.80L30.08 6.80Q29.36 6.80 28.92 7.09L28.92 7.09L28.92 7.09Q28.48 7.38 28.48 7.99L28.48 7.99L27.26 7.99L27.26 7.99Q27.26 6.45 28.91 6.09L28.91 6.09L28.91 6.09Q29.41 5.98 30.00 5.98L30.00 5.98L30.00 5.98Q31.25 5.98 31.95 6.61L31.95 6.61L31.95 6.61Q32.65 7.24 32.65 8.53L32.65 8.53L32.65 12.84L31.70 12.84L31.58 11.72L31.58 11.72Q30.97 12.99 29.36 12.99L29.36 12.99L29.36 12.99Q28.28 12.99 27.63 12.39L27.63 12.39L27.63 12.39Q26.98 11.79 26.98 10.89L26.98 10.89L26.98 10.89Q26.98 10.00 27.70 9.49L27.70 9.49L27.70 9.49Q28.42 8.99 29.50 8.99L29.50 8.99L29.50 8.99Q30.58 8.99 31.56 9.35L31.56 9.35ZM31.56 10.05L31.56 10.05L31.56 10.05Q30.56 9.77 29.82 9.77L29.82 9.77L29.82 9.77Q29.08 9.77 28.62 10.04L28.62 10.04L28.62 10.04Q28.15 10.30 28.15 10.88L28.15 10.88L28.15 10.88Q28.15 12.14 29.58 12.14L29.58 12.14L29.58 12.14Q30.39 12.14 30.98 11.56L30.98 11.56L30.98 11.56Q31.56 10.98 31.56 10.05ZM35.25 12.84L35.25 3.30L36.36 3.30L36.36 12.84L35.25 12.84ZM38.82 7.78L38.82 7.78Q38.82 6.96 39.53 6.47L39.53 6.47L39.53 6.47Q40.24 5.98 41.44 5.98L41.44 5.98L41.44 5.98Q42.64 5.98 43.32 6.48L43.32 6.48L43.32 6.48Q44.00 6.99 44.03 7.76L44.03 7.76L42.95 7.76L42.95 7.76Q42.83 6.85 41.41 6.85L41.41 6.85L41.41 6.85Q40.73 6.85 40.36 7.15L40.36 7.15L40.36 7.15Q39.98 7.46 39.98 7.82L39.98 7.82L39.98 7.82Q39.98 8.18 40.26 8.42L40.26 8.42L40.26 8.42Q40.54 8.67 41.16 8.85L41.16 8.85L42.50 9.30L42.50 9.30Q43.36 9.56 43.81 9.98L43.81 9.98L43.81 9.98Q44.27 10.39 44.27 11.11L44.27 11.11L44.27 11.11Q44.27 11.83 43.53 12.41L43.53 12.41L43.53 12.41Q42.78 12.99 41.45 12.99L41.45 12.99L41.45 12.99Q40.12 12.99 39.38 12.40L39.38 12.40L39.38 12.40Q38.64 11.80 38.60 10.86L38.60 10.86L39.66 10.86L39.66 10.86Q39.69 11.49 40.17 11.81L40.17 11.81L40.17 11.81Q40.66 12.12 41.38 12.12L41.38 12.12L41.38 12.12Q42.11 12.12 42.59 11.82L42.59 11.82L42.59 11.82Q43.06 11.51 43.06 11.08L43.06 11.08L43.06 11.08Q43.06 10.65 42.78 10.43L42.78 10.43L42.78 10.43Q42.50 10.21 41.87 10.04L41.87 10.04L40.57 9.60L40.57 9.60Q38.82 9.09 38.82 7.78L38.82 7.78ZM51.21 12.84L48.54 9.30L47.64 10.02L47.64 12.84L46.54 12.84L46.54 3.30L47.64 3.30L47.64 8.85L50.88 6.15L52.42 6.15L49.34 8.65L52.57 12.84L51.21 12.84ZM52.86 15.79L52.86 14.78L52.86 14.78Q53.55 15.32 54.31 15.32L54.31 15.32L54.31 15.32Q54.87 15.32 55.27 14.76L55.27 14.76L55.27 14.76Q55.57 14.35 55.80 13.52L55.80 13.52L56.00 12.84L53.26 6.15L54.49 6.15L56.52 11.48L58.10 6.15L59.22 6.15L56.71 14.17L56.71 14.17Q56.39 15.19 55.87 15.74L55.87 15.74L55.87 15.74Q55.34 16.28 54.54 16.28L54.54 16.28L54.54 16.28Q53.73 16.28 52.86 15.79L52.86 15.79ZM63.74 3.88L63.74 3.88L63.74 3.88Q65.34 3.88 66.26 5.05L66.26 5.05L66.26 5.05Q67.19 6.23 67.19 8.44L67.19 8.44L67.19 8.44Q67.19 10.64 66.26 11.82L66.26 11.82L66.26 11.82Q65.34 12.99 63.74 12.99L63.74 12.99L63.74 12.99Q62.15 12.99 61.22 11.83L61.22 11.83L61.22 11.83Q60.28 10.67 60.28 8.44L60.28 8.44L60.28 8.44Q60.28 6.20 61.22 5.04L61.22 5.04L61.22 5.04Q62.15 3.88 63.74 3.88ZM66.04 8.44L66.04 8.44L66.04 8.44Q66.04 6.72 65.45 5.80L65.45 5.80L65.45 5.80Q64.86 4.89 63.74 4.89L63.74 4.89L63.74 4.89Q62.61 4.89 62.02 5.80L62.02 5.80L62.02 5.80Q61.43 6.72 61.43 8.44L61.43 8.44L61.43 8.44Q61.43 10.15 62.02 11.07L62.02 11.07L62.02 11.07Q62.61 11.98 63.74 11.98L63.74 11.98L63.74 11.98Q64.86 11.98 65.45 11.07L65.45 11.07L65.45 11.07Q66.04 10.15 66.04 8.44Z"></path></g><defs data-v-fde0c5aa=""><linearGradient data-v-fde0c5aa="" gradientTransform="rotate(25)" id="14de6588-40a1-4eaa-bce7-3393773b9847" x1="0%" y1="0%" x2="100%" y2="0%"><stop data-v-fde0c5aa="" offset="0%" stop-color="#006678" stop-opacity="1"></stop><stop data-v-fde0c5aa="" offset="100%" stop-color="#4FA8FF" stop-opacity="1"></stop></linearGradient></defs><g data-v-fde0c5aa="" id="2accdf6d-771d-4ddf-be12-deafdb9a7213" stroke="none" fill="url(#14de6588-40a1-4eaa-bce7-3393773b9847)" transform="matrix(1.6126403338471955,0,0,1.6126403338471955,73.07946757470437,41.50492543473326)"><path d="M85.322 40.476C83.015 25.218 69.863 13.54 53.969 13.535c-10.613 0-20.021 5.226-25.77 13.236a25.683 25.683 0 0 0-2.569-.141 3.47 3.47 0 0 0-1.43.311C11.055 27.938.702 38.907.7 52.305c.002 14.053 11.392 25.442 25.446 25.446 5.071 0 9.814-1.497 13.784-4.062a31.546 31.546 0 0 0 14.038 3.276 31.66 31.66 0 0 0 11.208-2.046 19.902 19.902 0 0 0 9.562 2.437c11.024-.002 19.957-8.935 19.959-19.958 0-7.133-3.747-13.399-9.375-16.922zM74.74 70.358a12.9 12.9 0 0 1-7.284-2.241 3.493 3.493 0 0 0-3.4-.302 24.611 24.611 0 0 1-10.086 2.152 24.587 24.587 0 0 1-12.516-3.407 3.606 3.606 0 0 0-.569-.263 24.79 24.79 0 0 1-2.791-1.911 3.498 3.498 0 0 0-4.889 4.947 18.326 18.326 0 0 1-7.058 1.417c-10.185-.018-18.428-8.26-18.445-18.445.017-10.187 8.258-18.428 18.445-18.446 1.044 0 2.071.093 3.082.263.256.043.511.047.764.034 1.555.377 3.034.945 4.41 1.69a3.498 3.498 0 0 0 4.743-1.411 3.5 3.5 0 0 0-1.41-4.745 25.698 25.698 0 0 0-2.104-1.005c4.525-5.007 11.057-8.15 18.337-8.149 12.883-.006 23.462 9.867 24.607 22.439a3.493 3.493 0 0 0 1.925 2.817c4.269 2.129 7.199 6.517 7.197 11.606-.013 7.157-5.801 12.945-12.958 12.96z"></path></g><!----></svg>